STARTFONT 2.1
FONT -gbdfed-Unknown-Medium-R-Normal--7-50-96-96-P-40-FontSpecific-0
SIZE 5 96 96
FONTBOUNDINGBOX 6 6 -2 0
STARTPROPERTIES 9
POINT_SIZE 50
PIXEL_SIZE 7
RESOLUTION_X 96
RESOLUTION_Y 96
FONT_ASCENT 6
FONT_DESCENT 1
AVERAGE_WIDTH 40
SPACING "P"
_GBDFED_INFO "Edited with gbdfed 1.6."
ENDPROPERTIES
CHARS 173
STARTCHAR char35
ENCODING 33
SWIDTH 300 0
DWIDTH 2 0
BBX 1 6 1 0
BITMAP
80
80
80
80
00
80
ENDCHAR
STARTCHAR char36
ENCODING 34
SWIDTH 450 0
DWIDTH 3 0
BBX 3 2 0 4
BITMAP
A0
A0
ENDCHAR
STARTCHAR char37
ENCODING 35
SWIDTH 600 0
DWIDTH 4 0
BBX 5 6 -1 0
BITMAP
50
F8
50
50
F8
50
ENDCHAR
STARTCHAR char38
ENCODING 36
SWIDTH 600 0
DWIDTH 4 0
BBX 5 6 -1 0
BITMAP
20
78
A0
70
28
F0
ENDCHAR
STARTCHAR char39
ENCODING 37
SWIDTH 600 0
DWIDTH 4 0
BBX 4 4 0 1
BITMAP
90
20
40
90
ENDCHAR
STARTCHAR char40
ENCODING 38
SWIDTH 600 0
DWIDTH 4 0
BBX 4 6 0 0
BITMAP
40
A0
40
D0
A0
50
ENDCHAR
STARTCHAR char41
ENCODING 39
SWIDTH 450 0
DWIDTH 3 0
BBX 1 2 2 4
BITMAP
80
80
ENDCHAR
STARTCHAR char42
ENCODING 40
SWIDTH 450 0
DWIDTH 3 0
BBX 2 6 1 0
BITMAP
40
80
80
80
80
40
ENDCHAR
STARTCHAR char43
ENCODING 41
SWIDTH 450 0
DWIDTH 3 0
BBX 2 6 1 0
BITMAP
80
40
40
40
40
80
ENDCHAR
STARTCHAR char42
ENCODING 42
SWIDTH 600 0
DWIDTH 4 0
BBX 5 5 -1 0
BITMAP
50
20
F8
20
50
ENDCHAR
STARTCHAR char43
ENCODING 43
SWIDTH 600 0
DWIDTH 4 0
BBX 5 5 -1 0
BITMAP
20
20
F8
20
20
ENDCHAR
STARTCHAR char44
ENCODING 44
SWIDTH 450 0
DWIDTH 3 0
BBX 3 2 0 0
BITMAP
20
40
ENDCHAR
STARTCHAR char45
ENCODING 45
SWIDTH 600 0
DWIDTH 4 0
BBX 5 1 -1 2
BITMAP
F8
ENDCHAR
STARTCHAR char46
ENCODING 46
SWIDTH 450 0
DWIDTH 3 0
BBX 2 2 1 0
BITMAP
40
80
ENDCHAR
STARTCHAR char47
ENCODING 47
SWIDTH 600 0
DWIDTH 4 0
BBX 4 4 0 1
BITMAP
10
20
40
80
ENDCHAR
STARTCHAR char0
ENCODING 48
SWIDTH 600 0
DWIDTH 4 0
BBX 4 6 0 0
BITMAP
60
90
B0
D0
90
60
ENDCHAR
STARTCHAR char1
ENCODING 49
SWIDTH 450 0
DWIDTH 3 0
BBX 3 6 0 0
BITMAP
40
C0
40
40
40
E0
ENDCHAR
STARTCHAR char2
ENCODING 50
SWIDTH 600 0
DWIDTH 4 0
BBX 4 6 0 0
BITMAP
60
90
90
20
40
F0
ENDCHAR
STARTCHAR char3
ENCODING 51
SWIDTH 600 0
DWIDTH 4 0
BBX 4 6 0 0
BITMAP
F0
10
20
10
90
60
ENDCHAR
STARTCHAR char4
ENCODING 52
SWIDTH 600 0
DWIDTH 4 0
BBX 4 6 0 0
BITMAP
20
60
A0
F0
20
20
ENDCHAR
STARTCHAR char5
ENCODING 53
SWIDTH 600 0
DWIDTH 4 0
BBX 4 6 0 0
BITMAP
F0
80
E0
10
10
E0
ENDCHAR
STARTCHAR char6
ENCODING 54
SWIDTH 600 0
DWIDTH 4 0
BBX 4 6 0 0
BITMAP
60
80
E0
90
90
60
ENDCHAR
STARTCHAR char7
ENCODING 55
SWIDTH 600 0
DWIDTH 4 0
BBX 4 6 0 0
BITMAP
F0
10
20
20
40
40
ENDCHAR
STARTCHAR char8
ENCODING 56
SWIDTH 600 0
DWIDTH 4 0
BBX 4 6 0 0
BITMAP
60
90
60
90
90
60
ENDCHAR
STARTCHAR char9
ENCODING 57
SWIDTH 600 0
DWIDTH 4 0
BBX 4 6 0 0
BITMAP
60
90
90
70
10
60
ENDCHAR
STARTCHAR char58
ENCODING 58
SWIDTH 450 0
DWIDTH 3 0
BBX 1 4 2 1
BITMAP
80
00
00
80
ENDCHAR
STARTCHAR char59
ENCODING 59
SWIDTH 450 0
DWIDTH 3 0
BBX 2 5 1 0
BITMAP
40
00
00
40
80
ENDCHAR
STARTCHAR char60
ENCODING 60
SWIDTH 450 0
DWIDTH 3 0
BBX 3 5 0 0
BITMAP
20
40
80
40
20
ENDCHAR
STARTCHAR char61
ENCODING 61
SWIDTH 600 0
DWIDTH 4 0
BBX 4 3 0 1
BITMAP
F0
00
F0
ENDCHAR
STARTCHAR char62
ENCODING 62
SWIDTH 600 0
DWIDTH 4 0
BBX 4 5 0 0
BITMAP
40
20
10
20
40
ENDCHAR
STARTCHAR char63
ENCODING 63
SWIDTH 600 0
DWIDTH 4 0
BBX 4 6 0 0
BITMAP
60
90
20
20
00
20
ENDCHAR
STARTCHAR char64
ENCODING 64
SWIDTH 600 0
DWIDTH 4 0
BBX 4 6 0 0
BITMAP
60
D0
D0
B0
80
70
ENDCHAR
STARTCHAR char10
ENCODING 65
SWIDTH 600 0
DWIDTH 4 0
BBX 4 6 0 0
BITMAP
60
90
90
F0
90
90
ENDCHAR
STARTCHAR char11
ENCODING 66
SWIDTH 600 0
DWIDTH 4 0
BBX 4 6 0 0
BITMAP
E0
90
E0
90
90
E0
ENDCHAR
STARTCHAR char12
ENCODING 67
SWIDTH 600 0
DWIDTH 4 0
BBX 4 6 0 0
BITMAP
60
90
80
80
90
60
ENDCHAR
STARTCHAR char13
ENCODING 68
SWIDTH 600 0
DWIDTH 4 0
BBX 4 6 0 0
BITMAP
E0
90
90
90
90
E0
ENDCHAR
STARTCHAR char14
ENCODING 69
SWIDTH 600 0
DWIDTH 4 0
BBX 4 6 0 0
BITMAP
F0
80
E0
80
80
F0
ENDCHAR
STARTCHAR char15
ENCODING 70
SWIDTH 600 0
DWIDTH 4 0
BBX 4 6 0 0
BITMAP
F0
80
E0
80
80
80
ENDCHAR
STARTCHAR char71
ENCODING 71
SWIDTH 600 0
DWIDTH 4 0
BBX 4 6 0 0
BITMAP
60
90
80
B0
90
60
ENDCHAR
STARTCHAR char72
ENCODING 72
SWIDTH 600 0
DWIDTH 4 0
BBX 4 6 0 0
BITMAP
90
90
F0
90
90
90
ENDCHAR
STARTCHAR char73
ENCODING 73
SWIDTH 450 0
DWIDTH 3 0
BBX 3 6 0 0
BITMAP
E0
40
40
40
40
E0
ENDCHAR
STARTCHAR char74
ENCODING 74
SWIDTH 600 0
DWIDTH 4 0
BBX 4 6 0 0
BITMAP
F0
20
20
20
A0
40
ENDCHAR
STARTCHAR char75
ENCODING 75
SWIDTH 450 0
DWIDTH 3 0
BBX 3 6 0 0
BITMAP
A0
A0
C0
A0
A0
A0
ENDCHAR
STARTCHAR char76
ENCODING 76
SWIDTH 600 0
DWIDTH 4 0
BBX 4 6 0 0
BITMAP
80
80
80
80
80
F0
ENDCHAR
STARTCHAR char77
ENCODING 77
SWIDTH 600 0
DWIDTH 4 0
BBX 4 6 0 0
BITMAP
90
F0
90
90
90
90
ENDCHAR
STARTCHAR char78
ENCODING 78
SWIDTH 600 0
DWIDTH 4 0
BBX 4 6 0 0
BITMAP
90
D0
D0
B0
B0
90
ENDCHAR
STARTCHAR char79
ENCODING 79
SWIDTH 600 0
DWIDTH 4 0
BBX 4 6 0 0
BITMAP
60
90
90
90
90
60
ENDCHAR
STARTCHAR char80
ENCODING 80
SWIDTH 600 0
DWIDTH 4 0
BBX 4 6 0 0
BITMAP
E0
90
90
E0
80
80
ENDCHAR
STARTCHAR char81
ENCODING 81
SWIDTH 600 0
DWIDTH 4 0
BBX 4 6 0 0
BITMAP
60
90
90
90
60
10
ENDCHAR
STARTCHAR char82
ENCODING 82
SWIDTH 600 0
DWIDTH 4 0
BBX 4 6 0 0
BITMAP
E0
90
90
E0
90
90
ENDCHAR
STARTCHAR char83
ENCODING 83
SWIDTH 600 0
DWIDTH 4 0
BBX 4 6 0 0
BITMAP
70
80
60
10
10
E0
ENDCHAR
STARTCHAR char84
ENCODING 84
SWIDTH 600 0
DWIDTH 4 0
BBX 5 6 -1 0
BITMAP
F8
20
20
20
20
20
ENDCHAR
STARTCHAR char85
ENCODING 85
SWIDTH 600 0
DWIDTH 4 0
BBX 4 6 0 0
BITMAP
90
90
90
90
90
60
ENDCHAR
STARTCHAR char86
ENCODING 86
SWIDTH 450 0
DWIDTH 3 0
BBX 3 6 0 0
BITMAP
A0
A0
A0
A0
40
40
ENDCHAR
STARTCHAR char87
ENCODING 87
SWIDTH 600 0
DWIDTH 4 0
BBX 5 6 -1 0
BITMAP
88
88
A8
A8
50
50
ENDCHAR
STARTCHAR char87
ENCODING 88
SWIDTH 450 0
DWIDTH 3 0
BBX 3 6 0 0
BITMAP
A0
A0
40
40
A0
A0
ENDCHAR
STARTCHAR char88
ENCODING 89
SWIDTH 600 0
DWIDTH 4 0
BBX 4 6 0 0
BITMAP
90
90
60
20
20
20
ENDCHAR
STARTCHAR char89
ENCODING 90
SWIDTH 600 0
DWIDTH 4 0
BBX 4 6 0 0
BITMAP
F0
10
20
40
80
F0
ENDCHAR
STARTCHAR char90
ENCODING 91
SWIDTH 450 0
DWIDTH 3 0
BBX 3 6 0 0
BITMAP
E0
80
80
80
80
E0
ENDCHAR
STARTCHAR char91
ENCODING 92
SWIDTH 600 0
DWIDTH 4 0
BBX 4 4 0 1
BITMAP
80
40
20
10
ENDCHAR
STARTCHAR char92
ENCODING 93
SWIDTH 450 0
DWIDTH 3 0
BBX 3 6 0 0
BITMAP
E0
20
20
20
20
E0
ENDCHAR
STARTCHAR char93
ENCODING 94
SWIDTH 450 0
DWIDTH 3 0
BBX 3 2 0 4
BITMAP
40
A0
ENDCHAR
STARTCHAR char95
ENCODING 95
SWIDTH 600 0
DWIDTH 4 0
BBX 4 1 0 0
BITMAP
F0
ENDCHAR
STARTCHAR char96
ENCODING 96
SWIDTH 300 0
DWIDTH 2 0
BBX 2 2 0 4
BITMAP
80
40
ENDCHAR
STARTCHAR char97
ENCODING 97
SWIDTH 600 0
DWIDTH 4 0
BBX 4 5 0 0
BITMAP
60
10
70
90
70
ENDCHAR
STARTCHAR char98
ENCODING 98
SWIDTH 600 0
DWIDTH 4 0
BBX 4 6 0 0
BITMAP
80
80
E0
90
90
E0
ENDCHAR
STARTCHAR char99
ENCODING 99
SWIDTH 450 0
DWIDTH 3 0
BBX 3 4 0 0
BITMAP
60
80
80
60
ENDCHAR
STARTCHAR char100
ENCODING 100
SWIDTH 600 0
DWIDTH 4 0
BBX 4 6 0 0
BITMAP
10
10
70
90
90
70
ENDCHAR
STARTCHAR char101
ENCODING 101
SWIDTH 600 0
DWIDTH 4 0
BBX 4 5 0 0
BITMAP
60
90
E0
80
70
ENDCHAR
STARTCHAR char102
ENCODING 102
SWIDTH 600 0
DWIDTH 4 0
BBX 4 5 0 0
BITMAP
70
80
E0
80
80
ENDCHAR
STARTCHAR char103
ENCODING 103
SWIDTH 600 0
DWIDTH 4 0
BBX 4 5 0 0
BITMAP
70
90
70
10
E0
ENDCHAR
STARTCHAR char104
ENCODING 104
SWIDTH 600 0
DWIDTH 4 0
BBX 4 6 0 0
BITMAP
80
80
E0
90
90
90
ENDCHAR
STARTCHAR char105
ENCODING 105
SWIDTH 450 0
DWIDTH 3 0
BBX 2 5 1 0
BITMAP
80
00
80
80
40
ENDCHAR
STARTCHAR char106
ENCODING 106
SWIDTH 450 0
DWIDTH 3 0
BBX 3 5 0 0
BITMAP
E0
20
20
A0
40
ENDCHAR
STARTCHAR char107
ENCODING 107
SWIDTH 450 0
DWIDTH 3 0
BBX 3 6 0 0
BITMAP
80
A0
A0
C0
A0
A0
ENDCHAR
STARTCHAR char108
ENCODING 108
SWIDTH 450 0
DWIDTH 3 0
BBX 3 6 0 0
BITMAP
C0
40
40
40
40
E0
ENDCHAR
STARTCHAR char109
ENCODING 109
SWIDTH 600 0
DWIDTH 4 0
BBX 5 5 -1 0
BITMAP
D0
A8
A8
A8
A8
ENDCHAR
STARTCHAR char110
ENCODING 110
SWIDTH 450 0
DWIDTH 3 0
BBX 3 5 0 0
BITMAP
C0
A0
A0
A0
A0
ENDCHAR
STARTCHAR char111
ENCODING 111
SWIDTH 600 0
DWIDTH 4 0
BBX 4 5 0 0
BITMAP
60
90
90
90
60
ENDCHAR
STARTCHAR char112
ENCODING 112
SWIDTH 600 0
DWIDTH 4 0
BBX 4 5 0 0
BITMAP
E0
90
E0
80
80
ENDCHAR
STARTCHAR char113
ENCODING 113
SWIDTH 600 0
DWIDTH 4 0
BBX 4 5 0 0
BITMAP
70
90
70
10
10
ENDCHAR
STARTCHAR char114
ENCODING 114
SWIDTH 600 0
DWIDTH 4 0
BBX 4 5 0 0
BITMAP
A0
D0
80
80
80
ENDCHAR
STARTCHAR char115
ENCODING 115
SWIDTH 600 0
DWIDTH 4 0
BBX 4 5 0 0
BITMAP
70
80
60
10
E0
ENDCHAR
STARTCHAR char116
ENCODING 116
SWIDTH 450 0
DWIDTH 3 0
BBX 3 5 0 0
BITMAP
80
E0
80
80
60
ENDCHAR
STARTCHAR char117
ENCODING 117
SWIDTH 600 0
DWIDTH 4 0
BBX 4 5 0 0
BITMAP
90
90
90
90
60
ENDCHAR
STARTCHAR char118
ENCODING 118
SWIDTH 600 0
DWIDTH 4 0
BBX 4 5 0 0
BITMAP
90
90
60
60
60
ENDCHAR
STARTCHAR char119
ENCODING 119
SWIDTH 600 0
DWIDTH 4 0
BBX 5 5 -1 0
BITMAP
A8
A8
50
50
50
ENDCHAR
STARTCHAR char120
ENCODING 120
SWIDTH 600 0
DWIDTH 4 0
BBX 4 5 0 0
BITMAP
90
60
60
60
90
ENDCHAR
STARTCHAR char121
ENCODING 121
SWIDTH 450 0
DWIDTH 3 0
BBX 3 5 0 0
BITMAP
A0
A0
40
40
40
ENDCHAR
STARTCHAR char122
ENCODING 122
SWIDTH 600 0
DWIDTH 4 0
BBX 5 5 -1 0
BITMAP
F8
10
20
40
F8
ENDCHAR
STARTCHAR char123
ENCODING 123
SWIDTH 450 0
DWIDTH 3 0
BBX 3 6 0 0
BITMAP
60
40
C0
C0
40
60
ENDCHAR
STARTCHAR char125
ENCODING 124
SWIDTH 300 0
DWIDTH 2 0
BBX 2 6 0 0
BITMAP
40
40
40
40
40
40
ENDCHAR
STARTCHAR char125
ENCODING 125
SWIDTH 600 0
DWIDTH 4 0
BBX 3 6 1 0
BITMAP
C0
40
60
60
40
C0
ENDCHAR
STARTCHAR char126
ENCODING 126
SWIDTH 600 0
DWIDTH 4 0
BBX 4 2 0 4
BITMAP
50
A0
ENDCHAR
STARTCHAR char125
ENCODING 161
SWIDTH 300 0
DWIDTH 2 0
BBX 1 6 1 0
BITMAP
80
00
80
80
80
80
ENDCHAR
STARTCHAR char162
ENCODING 162
SWIDTH 600 0
DWIDTH 4 0
BBX 4 6 0 0
BITMAP
20
70
A0
A0
70
20
ENDCHAR
STARTCHAR char163
ENCODING 163
SWIDTH 600 0
DWIDTH 4 0
BBX 4 6 0 0
BITMAP
20
50
40
E0
40
F0
ENDCHAR
STARTCHAR char164
ENCODING 164
SWIDTH 600 0
DWIDTH 4 0
BBX 5 5 -1 0
BITMAP
88
70
50
70
88
ENDCHAR
STARTCHAR char165
ENCODING 165
SWIDTH 600 0
DWIDTH 4 0
BBX 5 6 -1 0
BITMAP
50
50
F8
20
F8
20
ENDCHAR
STARTCHAR char166
ENCODING 166
SWIDTH 300 0
DWIDTH 2 0
BBX 2 6 0 0
BITMAP
40
40
00
00
40
40
ENDCHAR
STARTCHAR char167
ENCODING 167
SWIDTH 600 0
DWIDTH 4 0
BBX 4 6 0 0
BITMAP
70
80
F0
F0
10
E0
ENDCHAR
STARTCHAR char168
ENCODING 168
SWIDTH 600 0
DWIDTH 4 0
BBX 4 1 0 5
BITMAP
90
ENDCHAR
STARTCHAR char169
ENCODING 169
SWIDTH 600 0
DWIDTH 4 0
BBX 6 6 -2 0
BITMAP
78
84
B4
C4
B4
7C
ENDCHAR
STARTCHAR char170
ENCODING 170
SWIDTH 600 0
DWIDTH 4 0
BBX 4 5 0 1
BITMAP
E0
50
F0
00
F0
ENDCHAR
STARTCHAR char171
ENCODING 171
SWIDTH 600 0
DWIDTH 4 0
BBX 4 3 0 2
BITMAP
50
A0
50
ENDCHAR
STARTCHAR char172
ENCODING 172
SWIDTH 600 0
DWIDTH 4 0
BBX 4 2 0 2
BITMAP
F0
10
ENDCHAR
STARTCHAR char173
ENCODING 173
SWIDTH 450 0
DWIDTH 3 0
BBX 3 1 0 3
BITMAP
E0
ENDCHAR
STARTCHAR char169
ENCODING 174
SWIDTH 600 0
DWIDTH 4 0
BBX 6 6 -2 0
BITMAP
78
E4
D4
E4
D4
7C
ENDCHAR
STARTCHAR char175
ENCODING 175
SWIDTH 600 0
DWIDTH 4 0
BBX 4 1 0 4
BITMAP
F0
ENDCHAR
STARTCHAR char176
ENCODING 176
SWIDTH 450 0
DWIDTH 3 0
BBX 3 3 0 3
BITMAP
40
A0
40
ENDCHAR
STARTCHAR char177
ENCODING 177
SWIDTH 600 0
DWIDTH 4 0
BBX 5 6 -1 0
BITMAP
20
20
F8
20
20
F8
ENDCHAR
STARTCHAR char179
ENCODING 178
SWIDTH 450 0
DWIDTH 3 0
BBX 3 4 0 2
BITMAP
40
A0
40
E0
ENDCHAR
STARTCHAR char179
ENCODING 179
SWIDTH 450 0
DWIDTH 3 0
BBX 3 4 0 2
BITMAP
E0
60
20
E0
ENDCHAR
STARTCHAR char180
ENCODING 180
SWIDTH 450 0
DWIDTH 3 0
BBX 2 2 1 4
BITMAP
40
80
ENDCHAR
STARTCHAR char181
ENCODING 181
SWIDTH 600 0
DWIDTH 4 0
BBX 4 5 0 0
BITMAP
90
90
90
F0
80
ENDCHAR
STARTCHAR char182
ENCODING 182
SWIDTH 600 0
DWIDTH 4 0
BBX 5 6 -1 0
BITMAP
78
A8
A8
68
28
28
ENDCHAR
STARTCHAR char183
ENCODING 183
SWIDTH 300 0
DWIDTH 2 0
BBX 1 2 1 2
BITMAP
80
80
ENDCHAR
STARTCHAR char184
ENCODING 184
SWIDTH 450 0
DWIDTH 3 0
BBX 3 2 0 0
BITMAP
20
40
ENDCHAR
STARTCHAR char184
ENCODING 185
SWIDTH 450 0
DWIDTH 3 0
BBX 2 4 1 2
BITMAP
40
C0
40
40
ENDCHAR
STARTCHAR char178
ENCODING 186
SWIDTH 600 0
DWIDTH 4 0
BBX 4 4 0 2
BITMAP
60
90
60
F0
ENDCHAR
STARTCHAR char171
ENCODING 187
SWIDTH 600 0
DWIDTH 4 0
BBX 4 3 0 2
BITMAP
A0
50
A0
ENDCHAR
STARTCHAR char187
ENCODING 188
SWIDTH 600 0
DWIDTH 4 0
BBX 4 6 0 0
BITMAP
40
50
20
50
B0
10
ENDCHAR
STARTCHAR char187
ENCODING 189
SWIDTH 600 0
DWIDTH 4 0
BBX 4 6 0 0
BITMAP
40
50
20
70
90
30
ENDCHAR
STARTCHAR char187
ENCODING 190
SWIDTH 600 0
DWIDTH 4 0
BBX 4 6 0 0
BITMAP
C0
D0
20
50
B0
10
ENDCHAR
STARTCHAR char191
ENCODING 191
SWIDTH 450 0
DWIDTH 3 0
BBX 3 6 0 0
BITMAP
20
00
20
40
80
60
ENDCHAR
STARTCHAR char10
ENCODING 192
SWIDTH 600 0
DWIDTH 4 0
BBX 4 6 0 0
BITMAP
40
20
60
90
F0
90
ENDCHAR
STARTCHAR char10
ENCODING 193
SWIDTH 600 0
DWIDTH 4 0
BBX 4 6 0 0
BITMAP
20
40
60
90
F0
90
ENDCHAR
STARTCHAR char10
ENCODING 194
SWIDTH 600 0
DWIDTH 4 0
BBX 4 6 0 0
BITMAP
60
90
60
90
F0
90
ENDCHAR
STARTCHAR char10
ENCODING 195
SWIDTH 600 0
DWIDTH 4 0
BBX 4 6 0 0
BITMAP
50
A0
60
90
F0
90
ENDCHAR
STARTCHAR char10
ENCODING 196
SWIDTH 600 0
DWIDTH 4 0
BBX 4 6 0 0
BITMAP
90
00
60
90
F0
90
ENDCHAR
STARTCHAR char10
ENCODING 197
SWIDTH 600 0
DWIDTH 4 0
BBX 4 6 0 0
BITMAP
60
90
60
90
F0
90
ENDCHAR
STARTCHAR char10
ENCODING 198
SWIDTH 600 0
DWIDTH 4 0
BBX 5 6 -1 0
BITMAP
58
A0
F8
A0
A0
B8
ENDCHAR
STARTCHAR char198
ENCODING 199
SWIDTH 600 0
DWIDTH 4 0
BBX 4 6 0 0
BITMAP
60
90
80
90
60
40
ENDCHAR
STARTCHAR char199
ENCODING 200
SWIDTH 600 0
DWIDTH 4 0
BBX 4 6 0 0
BITMAP
20
F0
80
F0
80
F0
ENDCHAR
STARTCHAR char199
ENCODING 201
SWIDTH 600 0
DWIDTH 4 0
BBX 4 6 0 0
BITMAP
40
F0
80
F0
80
F0
ENDCHAR
STARTCHAR char199
ENCODING 202
SWIDTH 600 0
DWIDTH 4 0
BBX 4 6 0 0
BITMAP
60
F0
80
F0
80
F0
ENDCHAR
STARTCHAR char199
ENCODING 203
SWIDTH 600 0
DWIDTH 4 0
BBX 4 6 0 0
BITMAP
90
F0
80
F0
80
F0
ENDCHAR
STARTCHAR char203
ENCODING 204
SWIDTH 450 0
DWIDTH 3 0
BBX 3 6 0 0
BITMAP
80
00
E0
40
40
E0
ENDCHAR
STARTCHAR char204
ENCODING 205
SWIDTH 450 0
DWIDTH 3 0
BBX 3 6 0 0
BITMAP
20
00
E0
40
40
E0
ENDCHAR
STARTCHAR char205
ENCODING 206
SWIDTH 450 0
DWIDTH 3 0
BBX 3 6 0 0
BITMAP
40
A0
E0
40
40
E0
ENDCHAR
STARTCHAR char206
ENCODING 207
SWIDTH 450 0
DWIDTH 3 0
BBX 3 6 0 0
BITMAP
A0
00
E0
40
40
E0
ENDCHAR
STARTCHAR char97
ENCODING 224
SWIDTH 600 0
DWIDTH 4 0
BBX 4 6 0 0
BITMAP
40
60
10
70
90
70
ENDCHAR
STARTCHAR char97
ENCODING 225
SWIDTH 600 0
DWIDTH 4 0
BBX 4 6 0 0
BITMAP
20
60
10
70
90
70
ENDCHAR
STARTCHAR char97
ENCODING 226
SWIDTH 600 0
DWIDTH 4 0
BBX 4 6 0 0
BITMAP
60
60
10
70
90
70
ENDCHAR
STARTCHAR char97
ENCODING 227
SWIDTH 600 0
DWIDTH 4 0
BBX 4 6 0 0
BITMAP
50
A0
10
70
90
70
ENDCHAR
STARTCHAR char97
ENCODING 228
SWIDTH 600 0
DWIDTH 4 0
BBX 4 6 0 0
BITMAP
90
60
10
70
90
70
ENDCHAR
STARTCHAR char97
ENCODING 229
SWIDTH 600 0
DWIDTH 4 0
BBX 4 6 0 0
BITMAP
60
F0
10
70
90
70
ENDCHAR
STARTCHAR char97
ENCODING 230
SWIDTH 600 0
DWIDTH 4 0
BBX 6 5 -2 0
BITMAP
7C
14
7C
90
7C
ENDCHAR
STARTCHAR char99
ENCODING 231
SWIDTH 600 0
DWIDTH 4 0
BBX 4 4 0 0
BITMAP
70
80
70
20
ENDCHAR
STARTCHAR char101
ENCODING 232
SWIDTH 600 0
DWIDTH 4 0
BBX 4 6 0 0
BITMAP
40
60
90
E0
80
70
ENDCHAR
STARTCHAR char101
ENCODING 233
SWIDTH 600 0
DWIDTH 4 0
BBX 4 6 0 0
BITMAP
20
60
90
E0
80
70
ENDCHAR
STARTCHAR char101
ENCODING 234
SWIDTH 600 0
DWIDTH 4 0
BBX 4 6 0 0
BITMAP
60
F0
90
E0
80
70
ENDCHAR
STARTCHAR char101
ENCODING 235
SWIDTH 600 0
DWIDTH 4 0
BBX 4 6 0 0
BITMAP
90
60
90
E0
80
70
ENDCHAR
STARTCHAR char105
ENCODING 236
SWIDTH 450 0
DWIDTH 3 0
BBX 3 6 0 0
BITMAP
80
40
00
40
40
20
ENDCHAR
STARTCHAR char105
ENCODING 237
SWIDTH 450 0
DWIDTH 3 0
BBX 3 6 0 0
BITMAP
40
80
00
40
40
20
ENDCHAR
STARTCHAR char105
ENCODING 238
SWIDTH 450 0
DWIDTH 3 0
BBX 3 6 0 0
BITMAP
40
A0
00
40
40
20
ENDCHAR
STARTCHAR char105
ENCODING 239
SWIDTH 450 0
DWIDTH 3 0
BBX 3 5 0 0
BITMAP
A0
00
40
40
20
ENDCHAR
STARTCHAR char111
ENCODING 240
SWIDTH 600 0
DWIDTH 4 0
BBX 4 6 0 0
BITMAP
40
F0
60
A0
A0
40
ENDCHAR
STARTCHAR char110
ENCODING 241
SWIDTH 600 0
DWIDTH 4 0
BBX 4 6 0 0
BITMAP
50
A0
C0
A0
A0
A0
ENDCHAR
STARTCHAR char111
ENCODING 242
SWIDTH 600 0
DWIDTH 4 0
BBX 4 6 0 0
BITMAP
20
40
60
90
90
60
ENDCHAR
STARTCHAR char111
ENCODING 243
SWIDTH 600 0
DWIDTH 4 0
BBX 4 6 0 0
BITMAP
40
20
60
90
90
60
ENDCHAR
STARTCHAR char111
ENCODING 244
SWIDTH 600 0
DWIDTH 4 0
BBX 4 6 0 0
BITMAP
60
90
60
90
90
60
ENDCHAR
STARTCHAR char111
ENCODING 245
SWIDTH 600 0
DWIDTH 4 0
BBX 4 6 0 0
BITMAP
50
A0
60
90
90
60
ENDCHAR
STARTCHAR char111
ENCODING 246
SWIDTH 600 0
DWIDTH 4 0
BBX 4 6 0 0
BITMAP
90
00
60
90
90
60
ENDCHAR
STARTCHAR char43
ENCODING 247
SWIDTH 600 0
DWIDTH 4 0
BBX 5 5 -1 0
BITMAP
20
00
F8
00
20
ENDCHAR
STARTCHAR char111
ENCODING 248
SWIDTH 600 0
DWIDTH 4 0
BBX 6 6 -2 0
BITMAP
34
48
58
68
48
B0
ENDCHAR
STARTCHAR char117
ENCODING 249
SWIDTH 600 0
DWIDTH 4 0
BBX 4 6 0 0
BITMAP
40
20
00
90
90
60
ENDCHAR
STARTCHAR char117
ENCODING 250
SWIDTH 600 0
DWIDTH 4 0
BBX 4 6 0 0
BITMAP
20
40
00
90
90
60
ENDCHAR
STARTCHAR char117
ENCODING 251
SWIDTH 600 0
DWIDTH 4 0
BBX 4 6 0 0
BITMAP
60
90
00
90
90
60
ENDCHAR
STARTCHAR char117
ENCODING 252
SWIDTH 600 0
DWIDTH 4 0
BBX 4 6 0 0
BITMAP
90
00
00
90
90
60
ENDCHAR
STARTCHAR char121
ENCODING 253
SWIDTH 450 0
DWIDTH 3 0
BBX 3 6 0 0
BITMAP
20
40
A0
A0
40
40
ENDCHAR
STARTCHAR char254
ENCODING 254
SWIDTH 600 0
DWIDTH 4 0
BBX 4 6 0 0
BITMAP
80
E0
90
90
E0
80
ENDCHAR
STARTCHAR char121
ENCODING 255
SWIDTH 450 0
DWIDTH 3 0
BBX 3 6 0 0
BITMAP
A0
00
A0
A0
40
40
ENDCHAR
ENDFONT
